<svg xmlns="http://www.w3.org/2000/svg" xmlns:xlink="http://www.w3.org/1999/xlink" width="500" zoomAndPan="magnify" viewBox="0 0 375 374.999991" height="500" preserveAspectRatio="xMidYMid meet" version="1.0"><defs><g/></defs><rect x="-37.5" width="450" fill="#ffffff" y="-37.499999" height="449.999989" fill-opacity="1"/><rect x="-37.5" width="450" fill="#f1efe7" y="-37.499999" height="449.999989" fill-opacity="1"/><g fill="#000000" fill-opacity="1"><g transform="translate(81.94026, 196.693523)"><g><path d="M 4.671875 -3.125 C 2.304688 -5.695312 1.125 -8.851562 1.125 -12.59375 C 1.125 -16.332031 2.304688 -19.5 4.671875 -22.09375 C 7.035156 -24.6875 10.035156 -25.984375 13.671875 -25.984375 C 17.023438 -25.984375 19.78125 -24.929688 21.9375 -22.828125 L 21.9375 -25.234375 L 30.65625 -25.234375 L 30.65625 0 L 22.046875 0 L 22.046875 -2.859375 L 21.9375 -2.859375 C 19.78125 -0.460938 17.023438 0.734375 13.671875 0.734375 C 10.035156 0.734375 7.035156 -0.550781 4.671875 -3.125 Z M 12.078125 -16.875 C 10.941406 -15.757812 10.375 -14.332031 10.375 -12.59375 C 10.375 -10.851562 10.914062 -9.429688 12 -8.328125 C 13.082031 -7.234375 14.507812 -6.6875 16.28125 -6.6875 C 17.988281 -6.6875 19.390625 -7.242188 20.484375 -8.359375 C 21.585938 -9.472656 22.140625 -10.882812 22.140625 -12.59375 C 22.140625 -14.332031 21.570312 -15.757812 20.4375 -16.875 C 19.3125 -17.988281 17.925781 -18.546875 16.28125 -18.546875 C 14.613281 -18.546875 13.210938 -17.988281 12.078125 -16.875 Z M 12.078125 -16.875 "/></g></g></g><g fill="#000000" fill-opacity="1"><g transform="translate(110.922566, 196.693523)"><g><path d="M 4.671875 -3.125 C 2.304688 -5.695312 1.125 -8.851562 1.125 -12.59375 C 1.125 -16.332031 2.304688 -19.5 4.671875 -22.09375 C 7.035156 -24.6875 10.035156 -25.984375 13.671875 -25.984375 C 17.023438 -25.984375 19.78125 -24.929688 21.9375 -22.828125 L 21.9375 -42.3125 L 30.65625 -42.3125 L 30.65625 0 L 22.046875 0 L 22.046875 -2.859375 L 21.9375 -2.859375 C 19.78125 -0.460938 17.023438 0.734375 13.671875 0.734375 C 10.035156 0.734375 7.035156 -0.550781 4.671875 -3.125 Z M 12.078125 -16.875 C 10.941406 -15.757812 10.375 -14.332031 10.375 -12.59375 C 10.375 -10.851562 10.914062 -9.429688 12 -8.328125 C 13.082031 -7.234375 14.507812 -6.6875 16.28125 -6.6875 C 17.988281 -6.6875 19.390625 -7.242188 20.484375 -8.359375 C 21.585938 -9.472656 22.140625 -10.882812 22.140625 -12.59375 C 22.140625 -14.332031 21.570312 -15.757812 20.4375 -16.875 C 19.3125 -17.988281 17.925781 -18.546875 16.28125 -18.546875 C 14.613281 -18.546875 13.210938 -17.988281 12.078125 -16.875 Z M 12.078125 -16.875 "/></g></g></g><g fill="#000000" fill-opacity="1"><g transform="translate(139.904873, 196.693523)"><g><path d="M 9.34375 -25.234375 L 15.5 -11.515625 L 21.65625 -25.234375 L 31.984375 -25.234375 L 18.453125 0 L 12.546875 0 L -0.984375 -25.234375 Z M 9.34375 -25.234375 "/></g></g></g><g fill="#000000" fill-opacity="1"><g transform="translate(166.279194, 196.693523)"><g><path d="M 5.328125 -3 C 2.523438 -5.488281 1.125 -8.6875 1.125 -12.59375 C 1.125 -16.5 2.582031 -19.707031 5.5 -22.21875 C 8.425781 -24.726562 12.035156 -25.984375 16.328125 -25.984375 C 20.566406 -25.984375 24.132812 -24.71875 27.03125 -22.1875 C 29.9375 -19.664062 31.390625 -16.46875 31.390625 -12.59375 C 31.390625 -8.726562 29.96875 -5.539062 27.125 -3.03125 C 24.289062 -0.519531 20.691406 0.734375 16.328125 0.734375 C 11.804688 0.734375 8.140625 -0.507812 5.328125 -3 Z M 12.078125 -16.875 C 10.941406 -15.757812 10.375 -14.332031 10.375 -12.59375 C 10.375 -10.851562 10.914062 -9.429688 12 -8.328125 C 13.082031 -7.234375 14.507812 -6.6875 16.28125 -6.6875 C 17.988281 -6.6875 19.390625 -7.242188 20.484375 -8.359375 C 21.585938 -9.472656 22.140625 -10.882812 22.140625 -12.59375 C 22.140625 -14.332031 21.570312 -15.757812 20.4375 -16.875 C 19.3125 -17.988281 17.925781 -18.546875 16.28125 -18.546875 C 14.613281 -18.546875 13.210938 -17.988281 12.078125 -16.875 Z M 12.078125 -16.875 "/></g></g></g><g fill="#000000" fill-opacity="1"><g transform="translate(194.178938, 196.693523)"><g><path d="M 1.828125 6.203125 L 8.953125 2.703125 C 10.265625 4.867188 12.546875 5.953125 15.796875 5.953125 C 17.304688 5.953125 18.707031 5.46875 20 4.5 C 21.289062 3.53125 21.9375 2.046875 21.9375 0.046875 L 21.9375 -1.828125 C 20.394531 -0.117188 17.640625 0.734375 13.671875 0.734375 C 10.035156 0.734375 7.035156 -0.550781 4.671875 -3.125 C 2.304688 -5.695312 1.125 -8.851562 1.125 -12.59375 C 1.125 -16.332031 2.304688 -19.5 4.671875 -22.09375 C 7.035156 -24.6875 10.035156 -25.984375 13.671875 -25.984375 C 16.921875 -25.984375 19.628906 -24.984375 21.796875 -22.984375 L 21.9375 -22.984375 L 21.9375 -25.234375 L 30.65625 -25.234375 L 30.65625 0.6875 C 30.65625 4.789062 29.289062 7.957031 26.5625 10.1875 C 23.84375 12.414062 20.253906 13.53125 15.796875 13.53125 C 8.578125 13.53125 3.921875 11.085938 1.828125 6.203125 Z M 12.078125 -16.875 C 10.941406 -15.757812 10.375 -14.332031 10.375 -12.59375 C 10.375 -10.851562 10.914062 -9.429688 12 -8.328125 C 13.082031 -7.234375 14.507812 -6.6875 16.28125 -6.6875 C 17.988281 -6.6875 19.390625 -7.242188 20.484375 -8.359375 C 21.585938 -9.472656 22.140625 -10.882812 22.140625 -12.59375 C 22.140625 -14.332031 21.570312 -15.757812 20.4375 -16.875 C 19.3125 -17.988281 17.925781 -18.546875 16.28125 -18.546875 C 14.613281 -18.546875 13.210938 -17.988281 12.078125 -16.875 Z M 12.078125 -16.875 "/></g></g></g><g fill="#000000" fill-opacity="1"><g transform="translate(223.161248, 196.693523)"><g><path d="M 11.171875 -25.234375 L 11.171875 -13.234375 C 11.171875 -10.742188 11.546875 -8.972656 12.296875 -7.921875 C 13.054688 -6.867188 14.335938 -6.34375 16.140625 -6.34375 C 17.941406 -6.34375 19.21875 -6.867188 19.96875 -7.921875 C 20.726562 -8.972656 21.109375 -10.742188 21.109375 -13.234375 L 21.109375 -25.234375 L 29.8125 -25.234375 L 29.8125 -11.125 C 29.8125 -6.925781 28.71875 -3.898438 26.53125 -2.046875 C 24.351562 -0.191406 20.882812 0.734375 16.125 0.734375 C 11.375 0.734375 7.90625 -0.191406 5.71875 -2.046875 C 3.539062 -3.898438 2.453125 -6.925781 2.453125 -11.125 L 2.453125 -25.234375 Z M 11.171875 -25.234375 "/></g></g></g><g fill="#000000" fill-opacity="1"><g transform="translate(250.814967, 196.693523)"><g><path d="M 28.484375 -11.421875 L 10.1875 -11.421875 C 10.1875 -9.648438 10.757812 -8.335938 11.90625 -7.484375 C 13.050781 -6.628906 14.296875 -6.203125 15.640625 -6.203125 C 17.054688 -6.203125 18.171875 -6.390625 18.984375 -6.765625 C 19.804688 -7.140625 20.742188 -7.882812 21.796875 -9 L 28.09375 -5.859375 C 25.46875 -1.460938 21.101562 0.734375 15 0.734375 C 11.195312 0.734375 7.929688 -0.566406 5.203125 -3.171875 C 2.484375 -5.773438 1.125 -8.914062 1.125 -12.59375 C 1.125 -16.269531 2.484375 -19.421875 5.203125 -22.046875 C 7.929688 -24.671875 11.195312 -25.984375 15 -25.984375 C 19.007812 -25.984375 22.265625 -24.828125 24.765625 -22.515625 C 27.273438 -20.203125 28.53125 -16.894531 28.53125 -12.59375 C 28.53125 -12 28.515625 -11.609375 28.484375 -11.421875 Z M 10.4375 -16.234375 L 20.03125 -16.234375 C 19.832031 -17.546875 19.3125 -18.554688 18.46875 -19.265625 C 17.632812 -19.972656 16.5625 -20.328125 15.25 -20.328125 C 13.8125 -20.328125 12.664062 -19.945312 11.8125 -19.1875 C 10.957031 -18.4375 10.5 -17.453125 10.4375 -16.234375 Z M 10.4375 -16.234375 "/></g></g></g><g fill="#000000" fill-opacity="1"><g transform="translate(275.860704, 196.693523)"><g><path d="M 8.5625 -10.53125 C 10.132812 -10.53125 11.46875 -9.976562 12.5625 -8.875 C 13.664062 -7.78125 14.21875 -6.445312 14.21875 -4.875 C 14.21875 -3.332031 13.664062 -2.007812 12.5625 -0.90625 C 11.46875 0.1875 10.132812 0.734375 8.5625 0.734375 C 7.019531 0.734375 5.695312 0.1875 4.59375 -0.90625 C 3.5 -2.007812 2.953125 -3.332031 2.953125 -4.875 C 2.953125 -6.445312 3.5 -7.78125 4.59375 -8.875 C 5.695312 -9.976562 7.019531 -10.53125 8.5625 -10.53125 Z M 8.5625 -10.53125 "/></g></g></g><g fill="#000000" fill-opacity="1"><g transform="translate(238.587835, 219.79853)"><g><path d="M 12.1875 -21 L 20.671875 0 L 15.53125 0 L 13.96875 -4.203125 L 5.984375 -4.203125 L 4.421875 0 L -0.71875 0 L 7.765625 -21 Z M 12.34375 -8.40625 L 10 -14.515625 L 9.953125 -14.515625 L 7.609375 -8.40625 Z M 12.34375 -8.40625 "/></g></g></g><g fill="#000000" fill-opacity="1"><g transform="translate(267.975248, 219.79853)"><g><path d="M 6.3125 -21 L 6.3125 0 L 1.53125 0 L 1.53125 -21 Z M 6.3125 -21 "/></g></g></g></svg>