<svg version="1.1" id="Layer_1" xmlns:x="ns_extend;" xmlns:i="ns_ai;" xmlns:graph="ns_graphs;" xmlns="http://www.w3.org/2000/svg" xmlns:xlink="http://www.w3.org/1999/xlink" x="0px" y="0px" viewBox="0 0 274.7 56" style="enable-background:new 0 0 274.7 56;" xml:space="preserve">
 <style type="text/css">
  .st0{fill:url(#SVGID_1_);}
	.st1{fill:url(#SVGID_2_);}
	.st2{fill:url(#SVGID_3_);}
	.st3{fill:url(#SVGID_4_);}
	.st4{fill:url(#SVGID_5_);}
	.st5{fill:url(#SVGID_6_);}
	.st6{fill:url(#SVGID_7_);}
	.st7{fill:url(#SVGID_8_);}
 </style>
 <metadata>
  <sfw xmlns="ns_sfw;">
   <slices>
   </slices>
   <sliceSourceBounds bottomLeftOrigin="true" height="56" width="274.7" x="27.9" y="-337.3">
   </sliceSourceBounds>
  </sfw>
 </metadata>
 <g>
  <g>
   <radialGradient id="SVGID_1_" cx="-9.3666" cy="128.8453" r="1.4931" gradientTransform="matrix(-9.9735 26.6356 46.4579 17.3958 -6062.2207 -1980.8879)" gradientUnits="userSpaceOnUse">
    <stop offset="6.441000e-02" style="stop-color:#AE7FE2">
    </stop>
    <stop offset="1" style="stop-color:#0078D4">
    </stop>
   </radialGradient>
   <path class="st0" d="M20.5,1.3l-0.3,0.2c-0.5,0.3-0.9,0.6-1.3,0.9l0.8-0.6h7l1.3,9.6l-6.4,6.4l-6.4,4.4v5.1c0,3.6,1.9,6.9,4.9,8.7
			l6.7,4.1l-14.2,8.3H10l-5.1-3.1c-3-1.8-4.9-5.1-4.9-8.7V19.4c0-3.6,1.9-6.9,4.9-8.7l15.3-9.2C20.3,1.4,20.4,1.4,20.5,1.3z">
   </path>
   <linearGradient id="SVGID_2_" gradientUnits="userSpaceOnUse" x1="210.2598" y1="-656.236" x2="201.171" y2="-640.5163" gradientTransform="matrix(0.6667 0 0 -0.6667 -114.9763 -396.4654)">
    <stop offset="0" style="stop-color:#114A8B">
    </stop>
    <stop offset="1" style="stop-color:#0078D4;stop-opacity:0">
    </stop>
   </linearGradient>
   <path class="st1" d="M20.5,1.3l-0.3,0.2c-0.5,0.3-0.9,0.6-1.3,0.9l0.8-0.6h7l1.3,9.6l-6.4,6.4l-6.4,4.4v5.1c0,3.6,1.9,6.9,4.9,8.7
			l6.7,4.1l-14.2,8.3H10l-5.1-3.1c-3-1.8-4.9-5.1-4.9-8.7V19.4c0-3.6,1.9-6.9,4.9-8.7l15.3-9.2C20.3,1.4,20.4,1.4,20.5,1.3z">
   </path>
   <radialGradient id="SVGID_3_" cx="-21.2446" cy="81.6108" r="1.4931" gradientTransform="matrix(26.1862 -3.8515 -2.5442 -17.2977 772.1304 1373.5771)" gradientUnits="userSpaceOnUse">
    <stop offset="0.1339" style="stop-color:#D59DFF">
    </stop>
    <stop offset="1" style="stop-color:#5E438F">
    </stop>
   </radialGradient>
   <path class="st2" d="M35.6,21.6v5.7c0,3.6-1.9,6.9-4.9,8.7l-15.3,9.2c-3.1,1.9-7,2-10.2,0.2l14.9,9c3.2,2,7.3,2,10.5,0L46,45.3
			c3-1.8,4.9-5.1,4.9-8.7v-4.1l-1.3-1.9L35.6,21.6z">
   </path>
   <linearGradient id="SVGID_4_" gradientUnits="userSpaceOnUse" x1="232.59" y1="-632.849" x2="222.8506" y2="-646.8142" gradientTransform="matrix(0.6667 0 0 -0.6667 -114.9763 -396.4654)">
    <stop offset="0" style="stop-color:#493474">
    </stop>
    <stop offset="1" style="stop-color:#8C66BA;stop-opacity:0">
    </stop>
   </linearGradient>
   <path class="st3" d="M35.6,21.6v5.7c0,3.6-1.9,6.9-4.9,8.7l-15.3,9.2c-3.1,1.9-7,2-10.2,0.2l14.9,9c3.2,2,7.3,2,10.5,0L46,45.3
			c3-1.8,4.9-5.1,4.9-8.7v-4.1l-1.3-1.9L35.6,21.6z">
   </path>
   <radialGradient id="SVGID_5_" cx="-46.0572" cy="135.1046" r="1.4931" gradientTransform="matrix(-20.593 -5.2215 -8.79 34.6664 286.2731 -4892.8984)" gradientUnits="userSpaceOnUse">
    <stop offset="5.849960e-02" style="stop-color:#50E6FF">
    </stop>
    <stop offset="1" style="stop-color:#436DCD">
    </stop>
   </radialGradient>
   <path class="st4" d="M46,10.7L30.7,1.5c-3.1-1.9-7-2-10.2-0.2l-0.3,0.2c-3,1.8-4.9,5.1-4.9,8.7v12.1l4.9-3c3.2-2,7.3-2,10.5,0
			L46,28.5c3,1.8,4.8,4.9,4.9,8.4c0-0.1,0-0.2,0-0.3V19.4C50.9,15.9,49,12.6,46,10.7z">
   </path>
   <linearGradient id="SVGID_6_" gradientUnits="userSpaceOnUse" x1="197.2375" y1="-622.3778" x2="211.5773" y2="-622.3778" gradientTransform="matrix(0.6667 0 0 -0.6667 -114.9763 -396.4654)">
    <stop offset="0" style="stop-color:#2D3F80">
    </stop>
    <stop offset="1" style="stop-color:#436DCD;stop-opacity:0">
    </stop>
   </linearGradient>
   <path class="st5" d="M46,10.7L30.7,1.5c-3.1-1.9-7-2-10.2-0.2l-0.3,0.2c-3,1.8-4.9,5.1-4.9,8.7v12.1l4.9-3c3.2-2,7.3-2,10.5,0
			L46,28.5c3,1.8,4.8,4.9,4.9,8.4c0-0.1,0-0.2,0-0.3V19.4C50.9,15.9,49,12.6,46,10.7z">
   </path>
   <radialGradient id="SVGID_7_" cx="-43.9717" cy="135.5837" r="0" gradientTransform="matrix(-20.593 -5.2215 -8.79 34.6664 286.2731 -4892.8984)" gradientUnits="userSpaceOnUse">
    <stop offset="5.849960e-02" style="stop-color:#50E6FF">
    </stop>
    <stop offset="1" style="stop-color:#436DCD">
    </stop>
   </radialGradient>
   <path class="st6" d="M0,36.9L0,36.9z">
   </path>
   <linearGradient id="SVGID_8_" gradientUnits="userSpaceOnUse" x1="172.4726" y1="-650.0573" x2="172.4726" y2="-650.0573" gradientTransform="matrix(0.6667 0 0 -0.6667 -114.9763 -396.4654)">
    <stop offset="0" style="stop-color:#2D3F80">
    </stop>
    <stop offset="1" style="stop-color:#436DCD;stop-opacity:0">
    </stop>
   </linearGradient>
   <path class="st7" d="M0,36.9L0,36.9z">
   </path>
  </g>
  <g>
   <path d="M109.1,44.2h-3.5V30.3c0-1.1,0.1-2.5,0.2-4.2h-0.1c-0.2,0.9-0.4,1.6-0.6,2l-6.4,16.1h-2.5l-6.4-16
			c-0.2-0.5-0.4-1.2-0.6-2.1h-0.1c0.1,0.9,0.1,2.3,0.1,4.2v13.9H86V22.7h5L96.7,37c0.4,1.1,0.7,1.9,0.8,2.5h0.1
			c0.4-1.1,0.7-2,0.9-2.5l5.8-14.3h4.8V44.2z">
   </path>
   <path d="M115.8,25.6c-0.6,0-1.1-0.2-1.5-0.6c-0.4-0.4-0.6-0.8-0.6-1.4s0.2-1,0.6-1.4c0.4-0.4,0.9-0.6,1.5-0.6
			c0.6,0,1.1,0.2,1.5,0.6c0.4,0.4,0.6,0.9,0.6,1.4c0,0.5-0.2,1-0.6,1.4C116.9,25.4,116.4,25.6,115.8,25.6z M117.5,44.2H114V28.8h3.5
			V44.2z">
   </path>
   <path d="M133.1,43.5c-1.2,0.7-2.7,1.1-4.4,1.1c-2.3,0-4.1-0.7-5.5-2.1c-1.4-1.4-2.1-3.3-2.1-5.5c0-2.5,0.8-4.6,2.3-6.1
			c1.5-1.5,3.5-2.3,6-2.3c1.4,0,2.6,0.2,3.7,0.7v3.2c-1.1-0.8-2.2-1.2-3.4-1.2c-1.5,0-2.7,0.5-3.6,1.5c-0.9,1-1.4,2.3-1.4,3.9
			c0,1.6,0.4,2.8,1.3,3.8c0.9,0.9,2.1,1.4,3.6,1.4c1.3,0,2.4-0.4,3.5-1.3V43.5z">
   </path>
   <path d="M145.4,32.2c-0.4-0.3-1-0.5-1.8-0.5c-1,0-1.9,0.5-2.6,1.4c-0.7,0.9-1,2.2-1,3.8v7.3h-3.5V28.8h3.5V32h0.1
			c0.3-1.1,0.9-1.9,1.6-2.5c0.7-0.6,1.5-0.9,2.4-0.9c0.6,0,1.1,0.1,1.4,0.3V32.2z">
   </path>
   <path d="M154.4,44.6c-2.4,0-4.3-0.7-5.7-2.2s-2.1-3.3-2.1-5.7c0-2.6,0.7-4.6,2.2-6c1.5-1.4,3.5-2.2,6-2.2c2.4,0,4.3,0.7,5.6,2.1
			c1.3,1.4,2,3.4,2,5.9c0,2.4-0.7,4.4-2.2,5.9S156.9,44.6,154.4,44.6z M154.6,31.3c-1.4,0-2.4,0.5-3.2,1.4c-0.8,0.9-1.2,2.3-1.2,3.9
			c0,1.6,0.4,2.9,1.2,3.8c0.8,0.9,1.9,1.4,3.2,1.4c1.4,0,2.4-0.5,3.2-1.4s1.1-2.2,1.1-3.9c0-1.7-0.4-3-1.1-3.9S156,31.3,154.6,31.3z
			">
   </path>
   <path d="M165,43.7v-3.2c1.3,1,2.7,1.5,4.3,1.5c2.1,0,3.2-0.6,3.2-1.9c0-0.4-0.1-0.6-0.3-0.9c-0.2-0.2-0.4-0.5-0.7-0.7
			c-0.3-0.2-0.7-0.4-1.1-0.5s-0.9-0.3-1.4-0.5c-0.6-0.2-1.2-0.5-1.7-0.8c-0.5-0.3-0.9-0.6-1.3-1c-0.3-0.4-0.6-0.8-0.8-1.2
			c-0.2-0.4-0.3-1-0.3-1.6c0-0.7,0.2-1.4,0.5-2c0.3-0.6,0.8-1,1.4-1.4c0.6-0.4,1.3-0.7,2-0.9c0.7-0.2,1.5-0.3,2.3-0.3
			c1.4,0,2.7,0.2,3.8,0.6v3c-1.1-0.7-2.3-1.1-3.7-1.1c-0.4,0-0.8,0-1.2,0.1c-0.4,0.1-0.7,0.2-0.9,0.4c-0.2,0.2-0.4,0.4-0.6,0.6
			c-0.1,0.2-0.2,0.5-0.2,0.7c0,0.3,0.1,0.6,0.2,0.8c0.1,0.2,0.3,0.4,0.6,0.6c0.3,0.2,0.6,0.3,1,0.5c0.4,0.1,0.8,0.3,1.3,0.5
			c0.7,0.3,1.3,0.5,1.8,0.8s1,0.6,1.3,1c0.4,0.4,0.7,0.8,0.9,1.2c0.2,0.5,0.3,1,0.3,1.7c0,0.8-0.2,1.5-0.5,2
			c-0.4,0.6-0.8,1.1-1.4,1.4c-0.6,0.4-1.3,0.7-2.1,0.8c-0.8,0.2-1.6,0.3-2.5,0.3C167.7,44.6,166.2,44.3,165,43.7z">
   </path>
   <path d="M186,44.6c-2.4,0-4.3-0.7-5.7-2.2s-2.1-3.3-2.1-5.7c0-2.6,0.7-4.6,2.2-6c1.5-1.4,3.5-2.2,6-2.2c2.4,0,4.3,0.7,5.6,2.1
			c1.3,1.4,2,3.4,2,5.9c0,2.4-0.7,4.4-2.2,5.9S188.4,44.6,186,44.6z M186.2,31.3c-1.4,0-2.4,0.5-3.2,1.4c-0.8,0.9-1.2,2.3-1.2,3.9
			c0,1.6,0.4,2.9,1.2,3.8c0.8,0.9,1.9,1.4,3.2,1.4c1.4,0,2.4-0.5,3.2-1.4c0.7-0.9,1.1-2.2,1.1-3.9c0-1.7-0.4-3-1.1-3.9
			C188.6,31.7,187.5,31.3,186.2,31.3z">
   </path>
   <path d="M205.7,24.3c-0.5-0.3-1-0.4-1.6-0.4c-1.7,0-2.5,1-2.5,2.9v2.1h3.6v2.7h-3.6v12.6h-3.5V31.6h-2.6v-2.7h2.6v-2.5
			c0-1.6,0.5-2.9,1.6-3.8c1.1-0.9,2.4-1.4,4-1.4c0.9,0,1.5,0.1,2,0.3V24.3z">
   </path>
   <path d="M216.3,44c-0.7,0.3-1.6,0.5-2.7,0.5c-3,0-4.5-1.4-4.5-4.3v-8.7h-2.6v-2.7h2.6v-3.6l3.5-1v4.5h3.7v2.7h-3.7v7.7
			c0,0.9,0.2,1.6,0.5,1.9c0.3,0.4,0.9,0.6,1.6,0.6c0.6,0,1.1-0.2,1.5-0.5V44z">
   </path>
   <path d="M227.5,43.4v-3.3c1.4,1.1,3,1.7,4.7,1.7c1.4,0,2.6-0.3,3.4-1c0.9-0.6,1.3-1.5,1.3-2.6c0-2.4-1.9-3.7-5.6-3.7h-1.7v-2.8
			h1.6c3.3,0,5-1.1,5-3.5c0-2.1-1.3-3.2-3.9-3.2c-1.4,0-2.8,0.5-4.1,1.5v-3.1c1.5-0.8,3.2-1.2,5.2-1.2c1.9,0,3.4,0.5,4.6,1.4
			c1.2,1,1.7,2.2,1.7,3.7c0,2.8-1.4,4.6-4.3,5.5V33c1.6,0.1,2.8,0.7,3.7,1.6s1.3,2.1,1.3,3.5c0,1.9-0.7,3.5-2.2,4.7
			c-1.4,1.2-3.4,1.8-5.7,1.8C230.5,44.6,228.8,44.2,227.5,43.4z">
   </path>
   <path d="M257,23v3c-1.1-0.6-2.2-0.9-3.4-0.9c-1.8,0-3.3,0.7-4.4,2.2c-1.1,1.5-1.7,3.5-1.7,6h0.1c1-1.8,2.6-2.7,4.8-2.7
			c1.8,0,3.3,0.6,4.4,1.8c1.1,1.2,1.6,2.8,1.6,4.9c0,2.1-0.7,3.9-2,5.2c-1.3,1.4-3,2-5.1,2c-2.3,0-4-0.9-5.3-2.6
			c-1.3-1.7-1.9-4.1-1.9-7.2c0-3.8,0.8-6.8,2.5-9c1.7-2.2,3.9-3.4,6.7-3.4C254.9,22.3,256.1,22.5,257,23z M251.4,33.3
			c-1.1,0-2,0.4-2.6,1.1c-0.7,0.8-1,1.6-1,2.7c0,1.3,0.3,2.4,1,3.3c0.7,0.9,1.6,1.4,2.7,1.4c1.1,0,1.9-0.4,2.6-1.2
			c0.6-0.8,1-1.8,1-3c0-1.3-0.3-2.4-0.9-3.1C253.4,33.7,252.5,33.3,251.4,33.3z">
   </path>
   <path d="M262,43.7v-3.3c1.4,0.9,2.8,1.4,4.3,1.4c1.5,0,2.6-0.4,3.5-1.1c0.9-0.7,1.3-1.7,1.3-3c0-1.2-0.5-2.2-1.4-2.8
			c-0.9-0.7-2.2-1-3.9-1c-0.6,0-1.7,0.1-3.2,0.2V22.7h11.1v3h-8v5.4c0.7,0,1.3-0.1,1.8-0.1c2.3,0,4,0.6,5.3,1.8
			c1.2,1.2,1.9,2.8,1.9,4.8c0,2.1-0.7,3.8-2.1,5.1c-1.4,1.3-3.4,1.9-5.9,1.9C264.6,44.6,263.1,44.3,262,43.7z">
   </path>
  </g>
 </g>
</svg>